<svg height="512" viewBox="0 0 60 60" width="512" xmlns="http://www.w3.org/2000/svg"><g id="Page-1" fill="none" fill-rule="evenodd"><g id="025---Mail-Chat" fill-rule="nonzero"><path id="Shape" d="m50.98 57.81c.0812981.4360035-.1343012.8734642-.5295993 1.0745807-.395298.2011166-.8758379.117832-1.1804007-.2045807l-8.38-9.35c-.1918463-.211442-.4644992-.3314092-.75-.33h-28.14c-2.88891761.0036776-5.66280497-1.1317478-7.72-3.16l21.63-20.84.62.6c1.9354461 1.869951 5.0045539 1.869951 6.94 0l.62-.6 21.57 20.78c-1.4529428 1.4218461-3.2636252 2.4239414-5.24 2.9-.4985236.1253484-.8165636.6133001-.73 1.12z" fill="#e8edfc"/><path id="Shape" d="m49.69 49.8c-.0865636-.5066999.2314764-.9946516.73-1.12 1.9763748-.4760586 3.7870572-1.4781539 5.24-2.9l-21.57-20.78-.62.6c-.3010854.2846861-.637107.5299819-1 .73l20.19 19.45c-1.4529428 1.4218461-3.2636252 2.4239414-5.24 2.9-.4985236.1253484-.8165636.6133001-.73 1.12l1.178 7.316 1.4 1.564c.3045628.3224127.7851027.4056973 1.1804007.2045807.3952981-.2011165.6108974-.6385772.5295993-1.0745807z" fill="#cad9fc"/><path id="Shape" d="m25.91 25-21.63 20.84c-2.10346272-2.0657001-3.285828-4.8918415-3.28-7.84v-26c-.0037938-2.94775183 1.17825503-5.77313683 3.28-7.84l2.89 2.78z" fill="#cad9fc"/><path id="Shape" d="m55.72 4.16c-24.476 23.582-21.402 20.619-22.25 21.44-1.9354461 1.869951-5.0045539 1.869951-6.94 0-1.046-1.012-17.946-17.3-22.25-21.44 2.05719503-2.02825223 4.83108239-3.16367762 7.72-3.16h36c2.8889176-.00367762 5.662805 1.13174777 7.72 3.16z" fill="#e8edfc"/><path id="Shape" d="m48 1h-3c2.8889176-.00367762 5.662805 1.13174777 7.72 3.16-24.476 23.582-21.402 20.619-22.25 21.44-.5574278.5327011-1.2322304.9269639-1.97 1.151 1.7422812.5593485 3.6509859.1173124 4.97-1.151.963-.931-1.956 1.882 22.25-21.44-2.057195-2.02825223-4.8310824-3.16367762-7.72-3.16z" fill="#cad9fc"/><path id="Shape" d="m59 12v26c-.0072305 2.9399991-1.2135012 5.7498153-3.34 7.78l-21.57-20.78 21.63-20.84c2.101745 2.06686317 3.2837938 4.89224817 3.28 7.84z" fill="#cad9fc"/><path id="Shape" d="m55.72 4.16-1.66 1.6c1.2658323 1.83448869 1.9425576 4.01117215 1.94 6.24v26c-.0010705 2.2224549-.6941518 4.3894263-1.983 6.2l1.643 1.58c2.1264988-2.0301847 3.3327695-4.8400009 3.34-7.78v-26c.0037938-2.94775183-1.178255-5.77313683-3.28-7.84z" fill="#a4c2f7"/><path id="Shape" d="m12 49 3 .0000022c-2.9179508.0018565-5.71692387-1.1564719-7.78022708-3.2197751-2.0633032-2.0633032-3.22163157-4.8622763-3.21977292-7.7802271v-26c-.00159287-2.91786941 1.15682085-5.71668804 3.22006641-7.77993359 2.06324555-2.06324556 4.86206419-3.22165928 7.77993359-3.22006805l-3 .00000164c-2.91786941-.00159287-5.71668804 1.15682085-7.77993359 3.22006641-2.06324556 2.06324555-3.22165928 4.86206418-3.22006641 7.77993359v26c-.00185865 2.9179508 1.15646972 5.7169239 3.21977292 7.7802271 2.06330321 2.0633032 4.8622763 3.2216316 7.78022708 3.2197729z" fill="#fff"/><path id="Rectangle-path" d="m0 30.001h2v8h-2z" fill="#fff"/><g fill="#428dff"><path id="Shape" d="m1.02 35c-.55228475.0027614-1.00223858-.4427153-1.005-.995s.44271525-1.0022386.995-1.005h.01c.55228475 0 1 .4477153 1 1s-.44771525 1-1 1z"/><path id="Shape" d="m48 0h-36c-6.62421881.00771476-11.99228524 5.37578119-12 12v18c0 .5522847.44771525 1 1 1s1-.4477153 1-1v-18c-.00042569-2.34083417.82421731-4.60692056 2.329-6.4l20.14 19.4-20.141 19.4c-1.50419625-1.7933491-2.32844906-4.0593362-2.328-6.4 0-.5522847-.44771525-1-1-1s-1 .4477153-1 1c.00716485 6.624447 5.37555305 11.9928352 12 12h28.144l8.394 9.363c.374357.4050142.9004764.6358255 1.452.637.3182472-.0007412.631798-.0768158.915-.222.7901054-.3910001 1.2242632-1.2593156 1.063-2.126l-1.312-8c5.4132431-1.2894583 9.2612323-6.087914 9.344-11.652v-26c-.0077148-6.62421881-5.3757812-11.99228524-12-12zm0 2c2.2697051.0003524 4.4710888.77660569 6.239 2.2l-20.845 20.082-.62.6c-1.5523599 1.4821646-3.9956401 1.4821646-5.548 0l-21.465-20.682c1.76783173-1.42353682 3.96926741-2.19980841 6.239-2.2zm2.191 45.705c-1.0055438.2507368-1.6513988 1.2299503-1.486 2.253l1.309 8.055-8.382-9.348c-.3790866-.422879-.92008-.6646536-1.488-.665h-28.144c-2.270117.000278-4.47202029-.7760341-6.24-2.2l20.156-19.417c2.2872837 2.177524 5.8807163 2.177524 8.168 0l20.1 19.362c-1.1703176.939576-2.5338374 1.608872-3.993 1.96zm7.809-9.705c-.0162759 2.3323884-.8604544 4.5831766-2.382 6.351l-20.085-19.351 20.138-19.4c1.5049333 1.79299246 2.329597 4.05913565 2.329 6.4z"/><path id="Shape" d="m15 6h14c.5522847 0 1-.44771525 1-1s-.4477153-1-1-1h-14c-.5522847 0-1 .44771525-1 1s.4477153 1 1 1z"/><circle id="Oval" cx="11" cy="5" r="1"/></g></g></g></svg>