<svg id="Layer_1" enable-background="new 0 0 128 128" height="512" viewBox="0 0 128 128" width="512" xmlns="http://www.w3.org/2000/svg"><g><path d="m124.807 36.443-11.137-19.261c-1.166-2.015-3.532-2.896-5.677-2.294v-2.344c0-1.654-1.346-3-3-3h-77.986c-1.654 0-3 1.346-3 3v2.344c-2.146-.602-4.512.278-5.677 2.294l-11.137 19.261c-.668 1.156-.847 2.505-.501 3.796s1.173 2.369 2.33 3.037l7.713 4.451c.785.453 1.644.668 2.491.668 1.729 0 3.412-.896 4.336-2.495l.445-.77v57.17h-7.107c-.224 0-.441.075-.617.214-2.728 2.141-4.292 5.349-4.292 8.801 0 5.792 4.344 10.58 10.199 11.142h70.804c8.271 0 15-6.729 15-15v-62.325l.444.769c.925 1.6 2.608 2.495 4.337 2.495.848 0 1.705-.215 2.49-.668l7.714-4.451c1.157-.668 1.984-1.746 2.33-3.037s.167-2.64-.502-3.797z" fill="#e6e7e8"/><g><path d="m100.994 6.543h-77.987c-1.105 0-2 .895-2 2v90.758h57.773 4.785c-2.376 1.866-3.909 4.759-3.909 8.014 0 5.332 4.098 9.695 9.314 10.142h.023c7.732 0 14-6.268 14-14v-94.914c.001-1.105-.895-2-1.999-2z" fill="#d4fbff"/><path d="m100.994 6.543h-77.987c-1.105 0-2 .896-2 2v3c0-1.104.895-2 2-2h77.987c1.105 0 2 .896 2 2v-3c0-1.105-.896-2-2-2z" fill="#fff"/><path d="m8.991 107.315c0 5.294 4.036 9.643 9.199 10.142h70.78c-5.216-.447-9.314-4.81-9.314-10.142 0-3.256 1.532-6.148 3.909-8.014h-4.785-65.881c-2.376 1.866-3.908 4.758-3.908 8.014z" fill="#6dc9f7"/><g><path d="m90.67 54.454-36.063-29.335c-2.236-1.819-5.285-2.275-7.956-1.189l-5.525 2.245c-1.694.688-3.611.556-5.193-.359l-6.165-3.563-9.965 17.235 40.762 32.098c1.532 1.242 3.76 1.106 5.129-.314 1.357-1.407 1.424-3.614.155-5.101l-.279-.327 2.967 2.527c1.756 1.434 4.367 1.172 5.802-.583 1.357-1.66 1.304-4.146-.202-5.618l1.99 1.786c1.63 1.463 4.115 1.414 5.686-.112 1.689-1.641 1.682-4.354-.016-5.986l-.755-.726 4.549 3.784c1.849 1.525 4.641 1.166 6.027-.874 1.21-1.784.724-4.227-.948-5.588z" fill="#ffd7e5"/><g fill="#ffd7e5"><path d="m94.233 22.253-5.726 3.284c-1.497.858-3.293 1.021-4.92.447l-10.076-3.561c-2.019-.713-4.215-.751-6.257-.107l-22.008 6.937c-2.314.729-3.605 3.189-2.889 5.507.704 2.281 3.096 3.588 5.397 2.95l16.668-4.625 21.055 17.142 18.72-10.739z"/><g><path d="m58.949 57.213c1.755.942 2.42 3.148 1.478 4.903l-2.513 4.678c-.942 1.753-3.147 2.418-4.901 1.477-1.755-.942-2.42-3.148-1.478-4.903l2.513-4.678c.942-1.753 3.148-2.418 4.901-1.477z"/><path d="m52.741 52.428c1.999 1.073 2.756 3.585 1.683 5.584l-2.862 5.328c-1.073 1.997-3.584 2.754-5.582 1.682-1.999-1.073-2.756-3.585-1.683-5.584l2.862-5.328c1.073-1.997 3.585-2.754 5.582-1.682z"/><path d="m46.336 46.92c1.999 1.073 2.756 3.585 1.683 5.584l-2.862 5.328c-1.073 1.997-3.584 2.754-5.582 1.682-1.999-1.073-2.756-3.585-1.683-5.584l2.862-5.328c1.073-1.997 3.584-2.754 5.582-1.682z"/><path d="m39.2 42.882c1.975 1.06 2.723 3.543 1.663 5.517l-1.965 3.658c-1.06 1.973-3.542 2.721-5.515 1.662-1.975-1.06-2.723-3.543-1.663-5.517l1.965-3.658c1.059-1.973 3.541-2.721 5.515-1.662z"/></g></g><g><path d="m13.235 42.862-7.713-4.452c-1.914-1.105-2.57-3.553-1.463-5.467l11.137-19.261c1.105-1.911 3.55-2.566 5.462-1.462l7.713 4.451c1.914 1.105 2.57 3.553 1.463 5.467l-11.137 19.261c-1.105 1.912-3.55 2.566-5.462 1.463z" fill="#0089ef"/><circle cx="22.786" cy="21.53" fill="#d4fbff" r="2.615"/></g><g><path d="m110.765 42.862 7.713-4.451c1.914-1.105 2.57-3.553 1.463-5.467l-11.137-19.261c-1.105-1.911-3.55-2.566-5.462-1.462l-7.713 4.451c-1.914 1.105-2.57 3.553-1.463 5.467l11.137 19.261c1.105 1.911 3.55 2.565 5.462 1.462z" fill="#0089ef"/><circle cx="101.214" cy="21.53" fill="#d4fbff" r="2.615"/></g></g><g fill="#3a2c60"><path d="m102.994 57.892c-.553 0-1 .447-1 1v8.833c0 .553.447 1 1 1s1-.447 1-1v-8.833c0-.552-.447-1-1-1z"/><path d="m22.786 17.916c-1.994 0-3.616 1.621-3.616 3.614s1.622 3.615 3.616 3.615 3.616-1.622 3.616-3.615-1.622-3.614-3.616-3.614zm0 5.229c-.892 0-1.616-.725-1.616-1.615s.725-1.614 1.616-1.614 1.616.725 1.616 1.614c0 .891-.724 1.615-1.616 1.615z"/><path d="m120.807 32.443-11.137-19.262c-1.165-2.014-3.53-2.896-5.677-2.294v-2.344c0-1.654-1.346-3-3-3h-77.986c-1.654 0-3 1.346-3 3v2.345c-2.146-.602-4.511.278-5.677 2.294l-11.137 19.261c-.669 1.157-.848 2.505-.502 3.796s1.174 2.369 2.331 3.037l7.713 4.451c.785.453 1.643.668 2.49.668 1.729 0 3.412-.896 4.337-2.495l.444-.769v57.169h-7.107c-.224 0-.441.075-.618.214-2.727 2.142-4.29 5.35-4.29 8.801 0 5.792 4.344 10.58 10.199 11.143h70.804c8.271 0 15-6.729 15-15v-32.066c0-.553-.447-1-1-1s-1 .447-1 1v32.065c0 7.16-5.819 12.986-12.976 12.999-4.692-.423-8.362-4.429-8.362-9.141 0-2.834 1.285-5.468 3.526-7.229.335-.263.466-.71.327-1.113-.14-.402-.519-.673-.945-.673h-61.557v-55.804l8.362 6.584c-.175.824-.163 1.681.088 2.513.392 1.3 1.264 2.368 2.454 3.007.744.399 1.559.603 2.384.603.399 0 .801-.061 1.198-.157-.126.762-.097 1.548.133 2.312.396 1.313 1.275 2.392 2.478 3.036.769.413 1.597.608 2.414.608.451 0 .898-.061 1.33-.176-.22 2.015.768 4.059 2.662 5.076.769.412 1.597.608 2.413.607.799 0 1.583-.197 2.295-.552.03.152.045.305.09.455.357 1.186 1.151 2.158 2.235 2.739.692.372 1.439.549 2.176.549.516 0 1.023-.096 1.507-.262l3.711 2.922c.895.726 1.963 1.082 3.027 1.082 1.257 0 2.507-.499 3.451-1.478.804-.833 1.251-1.881 1.336-2.953l.154.132c2.189 1.787 5.422 1.462 7.21-.726.743-.909 1.14-2.004 1.196-3.101 1.963 1.142 4.517.878 6.2-.759.986-.958 1.539-2.234 1.563-3.605l.882.733c1.105.913 2.551 1.316 3.979 1.116 1.44-.207 2.688-.988 3.511-2.201 1.47-2.164.968-5.206-1.144-6.924l-4.066-3.308 14.76-8.467v13.155c0 .553.447 1 1 1s1-.447 1-1v-13.924l.443.767c.926 1.601 2.608 2.496 4.337 2.496.848 0 1.706-.215 2.491-.668l7.713-4.451c1.157-.668 1.984-1.746 2.33-3.037.345-1.291.166-2.639-.503-3.796zm-42.151 74.872c0 3.731 1.89 7.102 4.782 9.143l-65.151.005c-4.729-.458-8.296-4.391-8.296-9.147 0-2.722 1.186-5.259 3.264-7.015h67.877c-1.594 1.968-2.476 4.423-2.476 7.014zm-55.649-99.772h77.987c.552 0 1 .448 1 1v3.301l-6.864 3.961c-1.157.668-1.984 1.746-2.33 3.037-.269 1.005-.211 2.042.14 3l-4.931 2.827c-1.242.715-2.733.848-4.089.371l-10.075-3.56c-2.208-.782-4.655-.824-6.891-.119l-11.086 3.494-.63-.513c-2.52-2.047-5.954-2.562-8.963-1.34l-5.526 2.245c-1.418.577-2.991.469-4.316-.298l-5.372-3.105c.351-.958.41-1.996.14-3.002-.346-1.291-1.174-2.369-2.331-3.037l-6.863-3.961v-3.301c0-.552.448-1 1-1zm42.047 24.765c-.181-.147-.404-.225-.632-.225-.09 0-.18.012-.268.036l-16.668 4.625c-1.789.495-3.626-.504-4.174-2.281-.552-1.786.451-3.696 2.234-4.258l22.008-6.937c1.825-.576 3.821-.54 5.623.096l10.075 3.562c1.904.671 4.001.481 5.75-.522l4.862-2.788 5.883 10.175 3.081 5.328-17.254 9.897zm-47.222 8.59c-.827 1.431-2.665 1.922-4.097 1.097l-7.713-4.451c-.695-.4-1.191-1.048-1.399-1.822-.207-.774-.101-1.583.301-2.276l11.136-19.263c.556-.96 1.565-1.498 2.603-1.498.509 0 1.023.13 1.494.401l7.713 4.451c.695.4 1.191 1.048 1.399 1.822.207.774.101 1.583-.301 2.277zm16.023 11.941c-.72-.387-1.247-1.034-1.485-1.823-.237-.789-.156-1.62.23-2.339l1.965-3.658c.555-1.032 1.617-1.619 2.714-1.619.49 0 .987.117 1.448.364.72.387 1.247 1.034 1.485 1.823s.156 1.621-.23 2.34l-1.053 1.961-.912 1.698c-.803 1.491-2.667 2.052-4.162 1.253zm6.193 5.794c-.73-.393-1.267-1.05-1.508-1.853-.242-.802-.159-1.646.233-2.376l1.651-3.073 1.213-2.258c.563-1.047 1.642-1.643 2.756-1.643.497 0 1.002.119 1.471.37.731.393 1.267 1.051 1.509 1.853.241.802.158 1.646-.234 2.378l-2.861 5.328c-.816 1.517-2.714 2.086-4.23 1.274zm6.406 5.508c-1.518-.815-2.09-2.713-1.275-4.229l2.862-5.328c.563-1.049 1.643-1.645 2.756-1.645.498 0 1.003.119 1.472.37.731.393 1.267 1.05 1.509 1.853.241.802.158 1.646-.234 2.377l-.326.607c-.015.026-.035.046-.049.073l-2.513 4.678c-.004.008-.006.017-.011.025-.831 1.469-2.694 2.022-4.191 1.219zm7.032 3.25c-.613-.329-1.063-.881-1.266-1.554-.198-.661-.132-1.353.181-1.958.013-.023.029-.043.042-.066l2.526-4.703c.481-.842 1.36-1.325 2.273-1.325.418 0 .842.1 1.235.311.613.329 1.063.881 1.266 1.554.202.673.133 1.381-.197 1.995l-2.512 4.678c-.684 1.271-2.273 1.751-3.548 1.068zm11.487 3.186c-1.019 1.055-2.644 1.153-3.79.222l-3.157-2.486c.297-.304.558-.653.769-1.045l2.243-4.178 3.809 3.449.24.281c.94 1.1.891 2.715-.114 3.757zm25.817-11.098c-.504.741-1.264 1.219-2.141 1.344-.864.127-1.748-.123-2.419-.676l-4.544-3.78-14.511-12.271c-.422-.357-1.053-.304-1.409.118s-.304 1.053.118 1.409l14.487 12.25.733.705c.624.6.969 1.406.971 2.271.002.864-.338 1.673-.958 2.275-1.191 1.155-3.089 1.193-4.322.086l-1.989-1.786c-.001 0-.001-.001-.002-.001-.001-.001-.002-.003-.003-.004l-13.724-12.14c-.413-.364-1.045-.327-1.412.086-.366.414-.327 1.046.086 1.412l13.693 12.115c1.102 1.085 1.157 2.994.12 4.261-1.09 1.334-3.061 1.532-4.38.455l-2.952-2.514-4.439-4.02c.097-.662.064-1.342-.136-2.004-.357-1.185-1.15-2.157-2.235-2.738-1.052-.564-2.225-.663-3.301-.394l-.233-.211c-.026-.384-.083-.767-.197-1.144-.396-1.313-1.276-2.393-2.479-3.037-1.194-.642-2.527-.747-3.741-.422.075-.679.018-1.372-.185-2.048-.396-1.313-1.276-2.392-2.479-3.037-1.45-.778-3.105-.764-4.505-.141-.035-.298-.088-.595-.176-.889-.393-1.301-1.264-2.369-2.455-3.008-2.465-1.326-5.546-.394-6.869 2.069l-1.653 3.078-10.048-7.912 2.425-4.194 6.606-11.424 5.299 3.063c1.863 1.076 4.077 1.228 6.069.419l5.525-2.245c2.167-.88 4.612-.586 6.516.732l-8.597 2.709c-2.828.892-4.418 3.922-3.544 6.756.869 2.817 3.774 4.404 6.62 3.619l16.152-4.482 25.864 21.039c1.316 1.071 1.646 2.937.754 4.251zm28.587-23.757c-.207.774-.704 1.422-1.398 1.822l-7.713 4.451c-1.432.829-3.27.335-4.097-1.097l-11.136-19.26c-.401-.695-.509-1.504-.302-2.278.208-.774.704-1.422 1.398-1.822l7.713-4.451c.471-.271.985-.401 1.494-.401 1.037 0 2.048.538 2.604 1.498l11.137 19.262c.4.693.508 1.501.3 2.276z"/><path d="m101.215 17.916c-1.994 0-3.616 1.621-3.616 3.614s1.622 3.615 3.616 3.615c1.993 0 3.615-1.622 3.615-3.615s-1.622-3.614-3.615-3.614zm0 5.229c-.892 0-1.616-.725-1.616-1.615s.725-1.614 1.616-1.614 1.615.725 1.615 1.614c0 .891-.725 1.615-1.615 1.615z"/><path d="m93.755 79.058h-63.509c-.553 0-1 .447-1 1s.447 1 1 1h63.509c.553 0 1-.447 1-1s-.448-1-1-1z"/><path d="m93.755 89.058h-63.509c-.553 0-1 .447-1 1s.447 1 1 1h63.509c.553 0 1-.447 1-1s-.448-1-1-1z"/></g></g></g></svg>