<svg id="Layer_3" enable-background="new 0 0 64 64" height="512" viewBox="0 0 64 64" width="512" xmlns="http://www.w3.org/2000/svg"><path d="m2 2h60v60h-60z" fill="#b8cbd9"/><path d="m42 39v-6h-2.291c-.426-2.246-1.32-4.323-2.579-6.13l1.87-1.87-4-4-1.87 1.87c-1.807-1.259-3.884-2.153-6.13-2.579v-2.291h-6v2.291c-2.246.426-4.323 1.32-6.13 2.579l-1.87-1.87-4 4 1.87 1.87c-1.259 1.807-2.153 3.884-2.579 6.13h-2.291v6h2.291c.426 2.246 1.32 4.323 2.579 6.13l-1.87 1.87 4 4 1.87-1.87c1.807 1.259 3.884 2.153 6.13 2.579v2.291h6v-2.291c2.246-.426 4.323-1.32 6.13-2.579l1.87 1.87 4-4-1.87-1.87c1.259-1.807 2.153-3.884 2.579-6.13z" fill="#fff"/><path d="m24 36c-1.105 0-2-.895-2-2v-8c0-1.105.895-2 2-2 1.105 0 2 .895 2 2v8c0 1.105-.895 2-2 2z" fill="#e4725f"/><path d="m2 2h60v12h-60z" fill="#e4725f"/><circle cx="8" cy="8" fill="#fff" r="2"/><circle cx="16" cy="8" fill="#fff" r="2"/><circle cx="24" cy="8" fill="#fff" r="2"/><g fill="#e4725f"><path d="m24 49c-6.617 0-12-5.383-12-12 0-4.531 2.508-8.627 6.545-10.691l.91 1.781c-3.365 1.72-5.455 5.134-5.455 8.91 0 5.514 4.486 10 10 10s10-4.486 10-10c0-3.776-2.09-7.19-5.455-8.91l.91-1.781c4.037 2.064 6.545 6.16 6.545 10.691 0 6.617-5.383 12-12 12z"/><path d="m55 55h4v2h-4z"/><path d="m39 55h14v2h-14z"/><path d="m55 47h4v2h-4z"/><path d="m43 47h10v2h-10z"/></g><circle cx="54" cy="56" fill="#fff" r="2"/><circle cx="54" cy="48" fill="#fff" r="2"/></svg>