<svg id="Layer_1" height="512" viewBox="0 0 512 512" width="512" xmlns="http://www.w3.org/2000/svg" data-name="Layer 1"><g id="_Group_2" data-name=" Group 2"><path d="m474.21 435.861h-148.43a12.085 12.085 0 0 0 -12.11 12.069 12.093 12.093 0 0 1 -12.11 12.07h-96.85a12.1 12.1 0 0 1 -12.11-12.07 12.083 12.083 0 0 0 -12.1-12.069h-142.71a26.7 26.7 0 1 0 0 53.4h436.42a26.7 26.7 0 1 0 0-53.4z" fill="#6d7486"/><path d="m449.56 140.4h-382.67a24.175 24.175 0 0 0 -24.21 24.13v271.331h137.82a12.083 12.083 0 0 1 12.1 12.069 12.1 12.1 0 0 0 12.11 12.07h96.85a12.093 12.093 0 0 0 12.11-12.071 12.085 12.085 0 0 1 12.11-12.069h147.99v-271.33a24.175 24.175 0 0 0 -24.21-24.13z" fill="#ccd3df"/></g><path d="m429.25 182.211h-342.05a4.354 4.354 0 0 0 -4.36 4.349v207.6a4.355 4.355 0 0 0 4.36 4.35h342.05a4.355 4.355 0 0 0 4.36-4.35v-207.6a4.354 4.354 0 0 0 -4.36-4.349z" fill="#f4f8fc"/><g fill="#3090fc"><path d="m117.81 163.881a141.893 141.893 0 0 1 1.95-23.48 140.458 140.458 0 0 1 33.01-69.48 140.768 140.768 0 0 0 36.03 29.46 191.5 191.5 0 0 0 -10.35 63.5z"/><path d="m259.06 208.731h.36a139.547 139.547 0 0 1 69.96 18.51c-12.1 34.55-34.7 62.42-66.65 77.74-1.22.03-2.44.05-3.67.05z"/><path d="m188.79 227.381c12.12 34.48 34.7 62.3 66.61 77.6a140.938 140.938 0 0 1 -102.63-48.13 140.971 140.971 0 0 1 36.02-29.47z"/><path d="m259.06 163.881v44.85a141.024 141.024 0 0 0 -70.27 18.65 191.483 191.483 0 0 1 -10.34-63.49v-.01z"/><path d="m262.71 22.791a140.942 140.942 0 0 1 102.64 48.13 139.587 139.587 0 0 1 -35.97 29.6c-12.11-34.55-34.71-62.421-66.67-77.73z"/><path d="m339.68 163.881h60.63a142.16 142.16 0 0 1 -1.18 18.33 140.5 140.5 0 0 1 -33.78 74.63 139.384 139.384 0 0 0 -35.97-29.6 172.148 172.148 0 0 0 5.47-19.05 189.7 189.7 0 0 0 3.5-20.61 209.467 209.467 0 0 0 1.33-23.69z"/><path d="m259.42 119.031a139.547 139.547 0 0 0 69.96-18.51 176.956 176.956 0 0 1 6.93 26.1 196.019 196.019 0 0 1 2.64 19.69q.72 8.655.73 17.57h-80.62v-44.85z"/><path d="m259.06 35.571v83.46a140.987 140.987 0 0 1 -70.26-18.65c12.12-34.48 34.7-62.3 66.61-77.59h.01c1.21-.03 2.42-.05 3.64-.05z"/></g><path d="m178.45 163.891a191.483 191.483 0 0 0 10.34 63.49 140.971 140.971 0 0 0 -36.02 29.47 140.533 140.533 0 0 1 -33.78-74.64 142.16 142.16 0 0 1 -1.18-18.33h60.64z" fill="#49bdff"/><path d="m259.06 22.741c1.22 0 2.43.02 3.65.05 31.96 15.31 54.56 43.18 66.67 77.73a139.547 139.547 0 0 1 -69.96 18.51h-.36z" fill="#49bdff"/><path d="m400.31 163.881h-60.63q0-8.91-.73-17.57a196.019 196.019 0 0 0 -2.64-19.69 176.956 176.956 0 0 0 -6.93-26.1 139.587 139.587 0 0 0 35.97-29.6 140.458 140.458 0 0 1 33.01 69.48 141.893 141.893 0 0 1 1.95 23.48z" fill="#49bdff"/><path d="m259.06 292.191v12.84c-1.22 0-2.43-.02-3.65-.05h-.01c-31.91-15.3-54.49-43.12-66.61-77.6a141.024 141.024 0 0 1 70.27-18.65z" fill="#49bdff"/><path d="m365.35 256.841a140.944 140.944 0 0 1 -102.62 48.14c31.95-15.32 54.55-43.19 66.65-77.74a139.384 139.384 0 0 1 35.97 29.6z" fill="#49bdff"/><path d="m339.68 163.881v.01a209.467 209.467 0 0 1 -1.33 23.69 189.7 189.7 0 0 1 -3.5 20.61 172.148 172.148 0 0 1 -5.47 19.05 139.547 139.547 0 0 0 -69.96-18.51h-.36v-44.85z" fill="#49bdff"/><path d="m178.45 163.881a191.5 191.5 0 0 1 10.35-63.5 140.987 140.987 0 0 0 70.26 18.65v44.85z" fill="#49bdff"/><path d="m255.41 22.791c-31.91 15.29-54.49 43.11-66.61 77.59a140.768 140.768 0 0 1 -36.03-29.46v-.01a140.968 140.968 0 0 1 102.64-48.12z" fill="#49bdff"/><path d="m112.84 394.16v-207.6a4.354 4.354 0 0 1 4.36-4.349h-30a4.354 4.354 0 0 0 -4.36 4.349v207.6a4.355 4.355 0 0 0 4.36 4.35h30a4.355 4.355 0 0 1 -4.36-4.35z" fill="#e2e4ed"/><path d="m149.76 140.4a140.061 140.061 0 0 1 20.426-52.757 140.984 140.984 0 0 1 -17.416-16.722 140.458 140.458 0 0 0 -33.01 69.48 141.881 141.881 0 0 0 -1.95 23.479h30a141.881 141.881 0 0 1 1.95-23.48z" fill="#64b5ff"/><path d="m182.77 256.851a141.808 141.808 0 0 1 -12.593-16.722 141.115 141.115 0 0 0 -17.407 16.722 140.938 140.938 0 0 0 102.63 48.13 121.359 121.359 0 0 1 -14.993-8.557 141.538 141.538 0 0 1 -57.637-39.573z" fill="#64b5ff"/><path d="m170.177 240.129a140.2 140.2 0 0 1 -21.187-57.918 142.163 142.163 0 0 1 -1.18-18.331h-30a142.163 142.163 0 0 0 1.18 18.331 140.533 140.533 0 0 0 33.78 74.64 141.115 141.115 0 0 1 17.407-16.722z" fill="#88dbff"/><path d="m170.186 87.644a141.528 141.528 0 0 1 12.584-16.723v-.01a141.552 141.552 0 0 1 57.645-39.567 121.1 121.1 0 0 1 15-8.553 140.964 140.964 0 0 0 -102.64 48.12v.01a140.984 140.984 0 0 0 17.411 16.723z" fill="#88dbff"/><path d="m165.359 337.071h238.413a6 6 0 1 0 0-12h-238.413a6 6 0 0 0 0 12z" fill="#284268"/><path d="m112.442 337.071h27.969a6 6 0 0 0 0-12h-27.969a6 6 0 0 0 0 12z" fill="#284268"/><path d="m165.359 371.753h238.413a6 6 0 0 0 0-12h-238.413a6 6 0 1 0 0 12z" fill="#284268"/><path d="m112.442 371.753h27.969a6 6 0 0 0 0-12h-27.969a6 6 0 0 0 0 12z" fill="#284268"/><path d="m479.771 430.342v-265.807a30.208 30.208 0 0 0 -30.214-30.135h-46.215c-13.7-67.056-73.187-117.662-144.28-117.662s-130.578 50.607-144.279 117.662h-47.894a30.208 30.208 0 0 0 -30.214 30.134v265.356a32.693 32.693 0 0 0 1.112 65.37h436.426a32.689 32.689 0 0 0 5.558-64.918zm-298.248-327.3a197.328 197.328 0 0 0 -8.99 54.841h-48.581a134.4 134.4 0 0 1 29.093-77.818 146.981 146.981 0 0 0 28.478 22.977zm183.577-22.951a134.394 134.394 0 0 1 29.072 77.792h-48.59c-.11-4.062-.322-8.105-.654-12.075a203.446 203.446 0 0 0 -2.721-20.292 187.7 187.7 0 0 0 -5.579-22.329 145.41 145.41 0 0 0 28.472-23.096zm-192.567 89.792a197.305 197.305 0 0 0 8.989 54.842 146.941 146.941 0 0 0 -28.477 22.975 134.4 134.4 0 0 1 -29.093-77.817zm13.153 66.417c9.7 24.16 24.489 44.467 43.537 59.41a135.288 135.288 0 0 1 -68.276-38.9 134.928 134.928 0 0 1 24.739-20.51zm143.314-29.436q-1.358 5.976-3.086 11.682a145.347 145.347 0 0 0 -60.856-15.713v-32.95h68.525c-.166 5.75-.567 11.454-1.2 17.02a185.453 185.453 0 0 1 -3.383 19.961zm-63.942 7.98a133.488 133.488 0 0 1 56.915 15.175c-11.574 29.917-31.22 53.153-56.915 67.024zm-12 82.2c-25.863-13.963-45.4-37.316-56.88-66.871a135.1 135.1 0 0 1 56.88-15.3zm79.393-60.895a133.382 133.382 0 0 1 24.749 20.635 135.3 135.3 0 0 1 -68.262 38.916c18.94-14.874 33.762-35.15 43.517-59.553zm32.649 11.526a145.435 145.435 0 0 0 -28.5-23.115q2.329-7.314 4.1-15.038a197.815 197.815 0 0 0 3.6-21.256c.688-6.015 1.117-12.175 1.285-18.383h48.582a134.4 134.4 0 0 1 -29.067 77.792zm-34.688-119.957a191.609 191.609 0 0 1 2.559 19.09c.3 3.64.5 7.348.607 11.075h-68.516v-32.957a145.538 145.538 0 0 0 60.857-15.714 176.54 176.54 0 0 1 4.493 18.506zm-65.35-14.8v-82.188c25.838 13.925 45.405 37.091 56.938 67.013a133.536 133.536 0 0 1 -56.938 15.176zm-12-.025a135.187 135.187 0 0 1 -56.874-15.308c11.485-29.55 31.015-52.9 56.874-66.855zm0 12.01v32.979h-9.484a6 6 0 0 0 0 12h9.484v32.979a147.015 147.015 0 0 0 -60.848 15.856 186.24 186.24 0 0 1 -7.678-48.835h15.233a6 6 0 0 0 0-12h-15.233a186.225 186.225 0 0 1 7.679-48.834 146.939 146.939 0 0 0 60.847 15.852zm6 186.122c72.9 0 133.587-53.216 145.227-122.811h23.321v204.295h-338.774v-204.294h25c11.64 69.595 72.326 122.811 145.226 122.811zm98.138-240.043a133.455 133.455 0 0 1 -24.713 20.618c-9.724-24.412-24.5-44.647-43.5-59.524a135.282 135.282 0 0 1 68.213 38.906zm-127.966-38.924c-19.051 14.942-33.841 35.242-43.544 59.408a134.9 134.9 0 0 1 -24.743-20.5 135.287 135.287 0 0 1 68.287-38.908zm-162.345 114.342h45.967a147.743 147.743 0 0 0 -1.044 17.482c0 4.153.182 8.264.522 12.332h-25.134a10.365 10.365 0 0 0 -10.361 10.346v207.6a10.365 10.365 0 0 0 10.361 10.349h342.049a10.365 10.365 0 0 0 10.361-10.346v-207.6a10.365 10.365 0 0 0 -10.361-10.346h-23.458c.34-4.068.522-8.179.522-12.332a147.743 147.743 0 0 0 -1.044-17.482h44.288a18.2 18.2 0 0 1 18.214 18.134v265.325h-141.994a18.107 18.107 0 0 0 -18.107 18.067 6.094 6.094 0 0 1 -6.107 6.071h-96.854a6.094 6.094 0 0 1 -6.107-6.067 18.108 18.108 0 0 0 -18.102-18.071h-131.825v-265.327a18.2 18.2 0 0 1 18.214-18.135zm422.037 330.783a20.693 20.693 0 0 1 -14.713 6.077h-436.426a20.7 20.7 0 1 1 0-41.4h142.713a6.094 6.094 0 0 1 6.107 6.067 18.108 18.108 0 0 0 18.102 18.073h96.854a18.108 18.108 0 0 0 18.107-18.067 6.094 6.094 0 0 1 6.107-6.067h148.436a20.77 20.77 0 0 1 20.787 20.675 20.521 20.521 0 0 1 -6.074 14.642z" fill="#284268"/><path d="m221.526 169.883h.2a6 6 0 0 0 0-12h-.2a6 6 0 0 0 0 12z" fill="#284268"/></svg>