<svg id="Capa_1" enable-background="new 0 0 512 512" height="512" viewBox="0 0 512 512" width="512" xmlns="http://www.w3.org/2000/svg"><path d="m256 0c-141.385 0-256 114.615-256 256s114.615 256 256 256 256-114.615 256-256-114.615-256-256-256z" fill="#3c5959"/><path d="m256 0c-8.224 0-16.352.404-24.377 1.162 129.948 12.278 231.623 121.677 231.623 254.838s-101.675 242.56-231.623 254.838c8.025.758 16.153 1.162 24.377 1.162 141.385 0 256-114.615 256-256s-114.615-256-256-256z" fill="#394949"/><path d="m256 44.387c-116.87 0-211.613 94.743-211.613 211.613s94.743 211.613 211.613 211.613 211.613-94.743 211.613-211.613-94.743-211.613-211.613-211.613z" fill="#fff"/><path d="m205.869 306.59c-7.789-7.789-7.789-20.417 0-28.205l94.429-94.429c31.802-31.803 66.207-61.477 102.368-88.299 4.031-2.99 9.637-2.597 13.186.951 3.548 3.548 3.941 9.155.951 13.186-26.823 36.161-56.497 70.565-88.3 102.368l-94.429 94.429c-7.789 7.787-20.417 7.787-28.205-.001z" fill="#29d0df"/><path d="m421.502 256c0 .173-.006.344-.007.516h46.111c.001-.173.007-.344.007-.516 0-54.423-20.552-104.041-54.309-141.535-9.392 12.493-19.121 24.771-29.162 36.797 23.347 28.531 37.36 64.996 37.36 104.738z" fill="#fd7e42"/><path d="m361.25 128.271c12.019-10.033 24.289-19.755 36.775-29.14-37.55-34.018-87.366-54.744-142.025-54.744v46.111c39.978 0 76.645 14.175 105.25 37.773z" fill="#f9c301"/><path d="m256 90.498v-46.111c-58.567 0-111.573 23.795-149.888 62.241l32.605 32.605c29.971-30.101 71.45-48.735 117.283-48.735z" fill="#fce25c"/><path d="m90.498 256c0-45.571 18.421-86.837 48.219-116.766l-32.605-32.605c-38.143 38.273-61.725 91.067-61.725 149.371 0 .173.006.344.007.516h46.111c-.001-.172-.007-.343-.007-.516z" fill="#7fd061"/><circle cx="256" cy="256.458" fill="#fbd307" r="34.321"/><path d="m304.754 424.936h-97.508c-4.267 0-7.726-3.459-7.726-7.726s3.459-7.726 7.726-7.726h97.508c4.268 0 7.726 3.459 7.726 7.726s-3.459 7.726-7.726 7.726z" fill="#fcb143"/><path d="m304.754 386.823h-97.508c-4.267 0-7.726-3.459-7.726-7.726s3.459-7.726 7.726-7.726h97.508c4.268 0 7.726 3.459 7.726 7.726s-3.459 7.726-7.726 7.726z" fill="#fcb143"/><path d="m467.606 256.516h-46.111c-.125 40.896-15.084 78.3-39.777 107.117-4.881 5.696-4.615 14.166.689 19.471l22.873 22.873c38.384-38.209 62.186-91.054 62.326-149.461z" fill="#fc5327"/><path d="m90.505 256.516h-46.111c.14 58.406 23.942 111.251 62.326 149.46l22.873-22.873c5.304-5.304 5.571-13.774.689-19.471-24.693-28.815-39.652-66.219-39.777-107.116z" fill="#93d87b"/></svg>